<svg version="1.1" xmlns="http://www.w3.org/2000/svg" xmlns:xlink="http://www.w3.org/1999/xlink" viewBox="0 0 172 172"><defs><linearGradient x1="85.49117" y1="38.2915" x2="87.14308" y2="158.78825" gradientUnits="userSpaceOnUse" id="color-1"><stop offset="0.301" stop-color="#2b92f3"></stop><stop offset="1" stop-color="#1166d2"></stop></linearGradient></defs><g fill="none" fill-rule="nonzero" stroke="none" stroke-width="1" stroke-linecap="butt" stroke-linejoin="miter" stroke-miterlimit="10" stroke-dasharray="" stroke-dashoffset="0" font-family="none" font-weight="none" font-size="none" text-anchor="none" style="mix-blend-mode: normal"><path d="M0,172v-172h172v172z" fill="none"></path><g><path d="M86,3.58333c-11.87517,0 -21.5,6.41775 -21.5,14.33333c0,7.91558 9.62483,14.33333 21.5,14.33333c11.87517,0 21.5,-6.41775 21.5,-14.33333c0,-7.91558 -9.62483,-14.33333 -21.5,-14.33333z" fill="#ecf0f1"></path><path d="M118.25,154.08333c-16.84167,-10.39167 1.79167,-45.50833 8.6,-56.975c18.275,-2.86667 27.23333,-12.18333 27.23333,-21.5c0,-15.40833 -23.65,-28.66667 -54.825,-31.53333c0.71667,-1.43333 1.075,-2.86667 1.075,-4.3c0,-6.09167 -2.86667,-6.45 -3.58333,-12.18333v0c0,-0.71667 0,-1.43333 0,-2.50833c-6.09167,-4.3 -10.75,-14.33333 -10.75,-14.33333c0,0 -4.65833,10.75 -10.75,14.33333c0,1.075 0,2.50833 0.35833,3.58333h-0.35833c0,5.01667 -3.58333,5.01667 -3.58333,10.75c0,1.43333 0.35833,2.86667 1.075,4.3c-31.175,2.86667 -54.825,16.125 -54.825,31.53333c0,9.675 8.6,18.275 25.44167,21.5c2.15,15.05 13.61667,71.66667 67.725,71.66667c28.66667,0 39.41667,-14.33333 39.41667,-14.33333c0,0 -12.9,12.18333 -32.25,0z" fill="#71a0ff"></path><path d="M118.25,154.08333c-16.84167,-10.39167 1.79167,-45.50833 8.6,-56.975c18.275,-2.86667 27.23333,-12.18333 27.23333,-21.5c0,-15.40833 -23.65,-28.66667 -54.825,-31.53333c0.71667,-1.43333 1.075,-2.86667 1.075,-4.3c0,-6.09167 -2.86667,-6.45 -3.58333,-12.18333v0c0,-0.71667 0,-1.43333 0,-2.50833c-6.09167,-4.3 -10.75,-14.33333 -10.75,-14.33333c0,0 -4.65833,10.75 -10.75,14.33333c0,1.075 0,2.50833 0.35833,3.58333h-0.35833c0,5.01667 -3.58333,5.01667 -3.58333,10.75c0,1.43333 0.35833,2.86667 1.075,4.3c-31.175,2.86667 -54.825,16.125 -54.825,31.53333c0,9.675 8.6,18.275 25.44167,21.5c2.15,15.05 13.61667,71.66667 67.725,71.66667c28.66667,0 39.41667,-14.33333 39.41667,-14.33333c0,0 -12.9,12.18333 -32.25,0z" fill="url(#color-1)"></path><path d="M86,53.03333c0,0 12.54167,0 10.75,17.2c12.9,-10.03333 21.5,-9.31667 21.5,-9.31667c0,-6.09167 -3.58333,-7.16667 -3.58333,-7.16667c0,0 -9.675,-2.86667 -28.66667,-0.71667z" fill="#fab200"></path><path d="M121.11667,155.51667c-0.71667,-0.35833 -1.79167,-1.075 -2.86667,-1.43333c-5.01667,-3.225 -6.80833,-8.24167 -6.80833,-14.69167c-10.03333,13.25833 -29.025,16.125 -38.34167,16.48333c7.525,6.09167 17.55833,10.39167 29.025,11.825c6.45,-2.50833 13.25833,-6.45 18.99167,-12.18333z" fill="#ecf0f1"></path><path d="M96.75,25.08333c0,0 0.35833,1.075 1.075,2.86667c0.71667,1.79167 2.15,3.94167 3.58333,7.16667c0.71667,1.79167 1.075,3.58333 1.075,5.73333c0,2.86667 -1.075,5.01667 -2.86667,7.16667c-1.79167,1.79167 -3.94167,3.58333 -6.09167,4.3c-2.50833,1.075 -4.65833,1.43333 -7.525,1.43333h-1.79167c-0.71667,0 -1.43333,0 -2.15,-0.35833c-1.075,-0.35833 -2.50833,-0.71667 -3.58333,-1.075c-2.50833,-1.075 -4.65833,-2.50833 -6.09167,-4.3c-1.79167,-1.79167 -2.86667,-4.3 -2.86667,-6.80833v-1.075v-0.35833v-0.35833c0,-0.35833 0,-1.075 0.35833,-1.43333c0.35833,-1.075 0.35833,-1.79167 0.71667,-2.86667c1.43333,-3.225 2.86667,-5.375 3.58333,-7.16667c0.71667,-1.79167 1.075,-2.86667 1.075,-2.86667c0,0 0,0.35833 0,0.71667c0,0.35833 0.35833,1.43333 0.35833,2.15c0,2.15 -0.71667,4.65833 -1.075,7.88333c0,0.71667 0,1.43333 0,2.15c0,0.35833 0,0.71667 0,1.075v0.35833v0v0.35833c0.35833,1.075 1.075,2.15 2.15,3.225c1.075,1.075 2.50833,1.79167 3.94167,2.15c0.71667,0.35833 1.43333,0.35833 2.50833,0.71667c0.35833,0 0.71667,0 1.075,0c0.35833,0 1.075,0 1.43333,0c1.43333,0 3.225,-0.35833 5.01667,-0.71667c1.43333,-0.35833 2.86667,-1.075 3.94167,-2.15c1.075,-1.075 1.79167,-2.15 2.15,-3.225c0.35833,-1.43333 0.35833,-2.86667 0.35833,-4.3c-0.35833,-2.86667 -0.71667,-5.73333 -0.71667,-7.525c0,-1.79167 0.35833,-2.86667 0.35833,-2.86667z" fill="#272727"></path><path d="M127.56667,96.75h-0.35833c-1.075,1.79167 -2.15,3.94167 -3.58333,6.45c-0.71667,0 -1.79167,0 -2.86667,-0.35833c-1.79167,-0.35833 -3.94167,-0.71667 -5.73333,-1.43333c-2.15,-0.71667 -4.3,-1.43333 -6.45,-2.50833c-2.15,-1.075 -4.65833,-2.15 -6.80833,-3.58333c-1.075,-0.71667 -2.15,-1.43333 -3.225,-2.15c-1.075,-0.71667 -2.15,-1.79167 -3.225,-2.50833c-2.15,-1.79167 -4.3,-3.58333 -6.45,-5.375c-0.71667,-0.71667 -1.79167,-1.43333 -2.50833,-2.50833c-0.71667,0.71667 -1.79167,1.43333 -2.50833,2.50833c-2.15,1.79167 -4.3,3.58333 -6.45,5.375c-1.075,0.71667 -2.15,1.79167 -3.225,2.50833c-1.075,0.71667 -2.15,1.43333 -3.225,2.15c-2.15,1.43333 -4.65833,2.50833 -6.80833,3.58333c-2.15,1.075 -4.3,1.79167 -6.45,2.50833c-2.15,0.71667 -4.3,1.075 -5.73333,1.43333c-1.79167,0.35833 -3.225,0.35833 -4.3,0.71667c-1.075,0 -1.79167,0.35833 -2.50833,0.35833c-0.71667,-2.86667 -1.075,-5.375 -1.075,-7.16667c0.71667,0 1.79167,0 3.225,0c1.075,0 2.86667,0 4.3,-0.35833c1.43333,-0.35833 3.225,-0.35833 5.01667,-0.71667c1.79167,-0.71667 3.94167,-1.075 6.09167,-1.79167c2.15,-0.71667 4.3,-1.43333 6.45,-2.86667c1.075,-0.71667 2.15,-1.075 3.225,-1.79167c1.075,-0.71667 2.15,-1.43333 3.225,-2.15c2.15,-1.43333 4.3,-2.86667 6.45,-4.65833c4.3,-3.225 8.6,-6.80833 12.54167,-10.03333c2.15,-1.43333 3.94167,-3.225 6.09167,-4.3c1.79167,-1.43333 3.94167,-2.50833 5.73333,-3.58333c1.79167,-1.075 3.58333,-1.79167 5.01667,-2.50833c1.79167,-0.35833 2.86667,-1.075 4.3,-1.075c2.50833,-0.35833 3.58333,-0.35833 3.58333,-0.35833c0,0 -1.43333,0.35833 -3.58333,0.71667c-1.075,0.35833 -2.50833,0.71667 -3.94167,1.43333c-1.43333,0.71667 -3.225,1.43333 -4.65833,2.50833c-1.79167,1.075 -3.58333,2.50833 -5.01667,3.94167c-1.79167,1.43333 -3.58333,3.225 -5.375,5.01667c-2.15,2.15 -4.3,4.3 -6.80833,6.45c0.71667,0.71667 1.43333,1.075 2.50833,1.79167c2.15,1.43333 4.3,3.225 6.45,4.65833c1.075,0.71667 2.15,1.43333 3.225,2.15c1.075,0.71667 2.15,1.075 3.225,1.79167c2.15,1.075 4.3,1.79167 6.45,2.86667c2.15,0.71667 4.3,1.075 6.09167,1.79167c1.79167,0.35833 3.58333,0.71667 5.01667,0.71667c1.43333,0.35833 2.86667,0 4.3,0.35833c-1.075,0 -0.35833,0 0.35833,0zM114.66667,53.75c0,0 -7.525,-3.58333 -12.9,-9.675c-0.35833,1.43333 -1.075,2.50833 -2.15,3.58333c-1.79167,1.79167 -3.94167,3.58333 -6.09167,4.3c-0.71667,0.35833 -1.79167,0.35833 -2.50833,0.71667c9.675,-0.71667 18.275,-0.71667 23.65,1.075zM84.20833,53.39167c-0.71667,0 -1.43333,0 -2.15,-0.35833c-1.075,-0.35833 -2.50833,-0.71667 -3.58333,-1.075c-2.50833,-1.075 -4.65833,-2.50833 -6.09167,-4.3c-1.075,-1.075 -1.79167,-2.50833 -2.15,-3.94167c-5.73333,7.16667 -16.125,14.33333 -30.81667,17.2c0,0 23.29167,-5.01667 44.79167,-7.525z" fill="#2163ff"></path></g></g></svg>