<svg width="1391" height="456" viewBox="0 0 1391 456" fill="none" xmlns="http://www.w3.org/2000/svg">
<path fill-rule="evenodd" clip-rule="evenodd" d="M255 396L302.333 399.507C349.667 403.013 444.333 410.026 539 424.053C633.667 438.079 728.333 459.119 823 455.612C917.667 452.105 1012.33 424.053 1107 417.04C1201.67 410.026 1296.33 424.053 1343.67 431.066L1391 438.079V396H1343.67C1296.33 396 1201.67 396 1107 396C1012.33 396 917.667 396 823 396C728.333 396 633.667 396 539 396C444.333 396 349.667 396 302.333 396H255Z" fill="white"/>
<rect width="1391" height="396" fill="white"/>
</svg>
